<svg width="1cm" height="1cm" class=" fill-[#233554] hover:fill-[#FFFFFF]  dark:fill-[#286D5D] dark:hover:fill-green-100 " xmlns="http://www.w3.org/2000/svg" viewBox="0 0 24 24">
                        <path d="M7.50159 0h2.57811v1.07812H8.57971v1.07813h1.49999v1.07813H7.50159V0ZM10.5953 0h2.5782v.9375h-1.5v.1875h1.5v2.15625h-2.5782v-.98437h1.5v-.1875h-1.5V0ZM13.6891 0h2.5781v.9375h-1.5v.1875h1.5v2.15625h-2.5781v-.98437h1.5v-.1875h-1.5V0Z">
                        </path>
                        <path fill-rule="evenodd" clip-rule="evenodd" d="m11.9912 24-6.94381-1.9277L3 4.71655h18L18.9541 22.0696 11.9912 24ZM7.04736 12.5727l.19078 2.1286h7.37716l-.2471 2.7606-2.3741.6408-.0021.0007-2.37065-.6401-.15155-1.6977H7.33301l.29822 3.3423 4.36027 1.2104 4.3664-1.2105.5322-5.9635.052-.5716.3843-4.30842H6.66406l.1935 2.12862h8.13604l-.1937 2.1798H7.04736Z">
                        </path>
                    </svg>