<svg width="1cm" height="1cm" class=" fill-[#233554] hover:fill-[#FFFFFF]  dark:fill-[#286D5D] dark:hover:fill-green-100 " xmlns="http://www.w3.org/2000/svg" viewBox="0 0 24 24">
                        <g clip-path="url(#a)">
                            <path d="M5.08057 0H6.1623v1.06875h.98953V0h1.08178v3.23644H7.15188V2.15269h-.98953v1.08375H5.08061L5.08057 0ZM9.65622 1.07325H8.7039V0h2.9869v1.07325h-.9528v2.16319H9.65626l-.00004-2.16319ZM12.1648 0h1.128l.6938 1.13719L14.6797 0h1.1284v3.23644h-1.0773V1.63228l-.7442 1.15074h-.0186l-.7448-1.15074v1.60416h-1.0584V0ZM16.3465 0h1.0821v2.16666h1.5212v1.06978h-2.6033V0Z">
                            </path>
                            <path fill-rule="evenodd" clip-rule="evenodd" d="M5.04593 22.0724 3 4.71658h18L18.9527 22.0697 11.9897 24l-6.94377-1.9276Zm4.13751-9.4997-.19453-2.1798h8.14539l.1906-2.12862H6.6626l.57412 6.43702h7.37708l-.247 2.7606-2.3741.6408-.0017.0007-2.37062-.6401-.15155-1.6977h-2.1368l.29822 3.3423 4.36035 1.2104 4.3659-1.2105.5322-5.9635.0519-.5716H9.18344Z">
                            </path>
                        </g>
                        <defs>
                            <clipPath id="a">
                                <path d="M0 0h24v24H0z"></path>
                            </clipPath>
                        </defs>
                    </svg>